<svg version="1.1" viewBox="0 0 24 24" xmlns="http://www.w3.org/2000/svg">
 <path d="m2.4 2.4c-1.32 0-2.4 1.08-2.4 2.4v14.4c0 1.32 1.08 2.4 2.4 2.4h19.2c1.32 0 2.4-1.08 2.4-2.4v-12c0-1.32-1.08-2.4-2.4-2.4h-8.4s-1.2 9.11e-5 -2.05-0.848l-0.703-0.703s-0.85-0.85-2.05-0.85h-6z" fill="#106a90"/>
 <path d="m24 14.6a7 7 0 0 1-7 7 7 7 0 0 1-7-7 7 7 0 0 1 7-7 7 7 0 0 1 7 7z" fill="#fff" fill-rule="evenodd" stroke-width="4.783"/>
 <path d="m17 18.2h-2.4v2.4h2.4z" fill="#106a90"/>
 <path d="m17 15.8v2.4h2.4v-2.4z" fill="#106a90"/>
 <path d="m17 13.4h-2.4v2.4h2.4z" fill="#106a90"/>
 <path d="m17 11v2.4h2.4v-2.4z" fill="#106a90"/>
 <path d="m14.6 8.6v2.4h2.4v-2.4z" fill="#106a90"/>
</svg>
