<svg version="1.1" viewBox="0 0 24 24" xmlns="http://www.w3.org/2000/svg"><path d="m2.4 2.4c-1.32 0-2.4 1.08-2.4 2.4v14.4c0 1.32 1.08 2.4 2.4 2.4h19.2c1.32 0 2.4-1.08 2.4-2.4v-12c0-1.32-1.08-2.4-2.4-2.4h-8.4s-1.2 9.11e-5 -2.05-0.848l-0.703-0.703s-0.85-0.85-2.05-0.85h-6z" fill="#106a90"/><path d="m21.6 5.8c0 1e-7 1.4-0.00156 1.4 1.4v12c0 1.4-1.4 1.4-1.4 1.4h-19.2s-1.4-3.94e-4 -1.4-1.4v-13.4z" fill="#fff"/><path d="m16.8 16.8h-2.4v2.4h2.4z" fill="#00b066"/><path d="m16.8 14.4v2.4h2.4v-2.4z" fill="#00b066"/><path d="m16.8 12h-2.4v2.4h2.4z" fill="#00b066"/><path d="m16.8 9.6v2.4h2.4v-2.4z" fill="#00b066"/><path d="m14.4 7.2v2.4h2.4v-2.4z" fill="#00b066"/></svg>
