<svg width="24" height="24" version="1.1" xmlns="http://www.w3.org/2000/svg">
<path d="m2.8633 3c-.4671.006578-.83926.39033-.83203.85742l-.03125 4.2852h20v-2.5723c.006677-.46631-.36572-.85029-.83203-.85742h-11.799c-.27298-.0011016-.52723-.13692-.67969-.36328v-.0019532l-.66797-.98242c-.15284-.22661-.40831-.36343-.68164-.36523h-4.4766zm-.86328 6.4277v10.715c-.0069085.46724.36673.85138.83398.85742h2.916c-.345 0-.625-.28758-.625-.64258v-.64258c-.0058622-.35076.27423-.6396.625-.64453h1.875c-.345 0-.625-.28662-.625-.64062v-.64453c-.00477-.35.275-.63764.625-.64258h-1.875c-.345 0-.625-.28758-.625-.64258v-.64258c-.0047707-.35.275-.63764.625-.64258h1.875c-.345 0-.625-.28953-.625-.64453v-.64062c-.00586-.35076.27423-.6396.625-.64453h-1.875c-.345 0-.625-.28758-.625-.64258v-.64258c-.00477-.35.275-.63764.625-.64258h2.5c.35.004936.62977.29258.625.64258v.64258c.00477.35-.275.63764-.625.64258h1.875c.35077.0049.63086.29377.625.64453v.64062c.0059.35076-.27423.6396-.625.64453h-1.875c.35.0049.62977.29258.625.64258v.64258c.00477.35-.275.63764-.625.64258h1.875c.35.0049.62977.29258.625.64258v.64453c.0037.34924-.27578.63569-.625.64062h-1.875c.35077.0049.63086.29378.625.64453v.64258c.0047707.35-.275.63764-.625.64258h12.916c.46725-.006041.84089-.39018.83398-.85742v-10.715h-20z" fill="#106a90"/>
</svg>
