<svg version="1.1" viewBox="0 0 24 24" xmlns="http://www.w3.org/2000/svg">
 <g transform="translate(-.48669 -.48795)" fill="#106a90">
  <path d="m2.8633 3c-0.4671 0.006578-0.87051 0.37696-0.86328 0.84404v3.2821h20l-9.1e-5 -1.5558c0.006677-0.46631-0.36572-0.85029-0.83203-0.85742h-11.799c-0.27298-0.0011016-0.52723-0.13692-0.67969-0.36328v-0.00195l-0.66797-0.98242c-0.15284-0.22661-0.40831-0.36343-0.68164-0.36523zm-0.86328 5.2266v11.916c-0.00691 0.46724 0.36673 0.85138 0.83398 0.85742h9.2187c-0.11406-0.3211-0.17969-0.66482-0.17969-1.0234v-9c0-1.1894 0.68594-2.2306 1.6797-2.75zm17.781 0 2.2188 2.2187v-2.2187z"/>
  <path d="m22.973 12.976v7c0 1.11-0.89 2-2 2h-6c-1.1 0-2-0.89-2-2v-9c0-1.1 0.9-2 2-2h4l4 4"/>
  <path d="m3.1205 9.3471 9.2217-3e-7c-0.0013 0.00214-0.46922 0.74916-0.46922 1.6295v8.9029h-8.7525z" fill="#aec8e0" fill-opacity=".67513" stroke-linecap="round" stroke-linejoin="round" stroke-width="2.2"/>
  <path d="m3.1205 4.1205 4.1179-1e-7 1.1348 1.7129h12.506v0.17218h-17.759z" fill="#aec8e0" stroke-linecap="round" stroke-linejoin="round" stroke-width="2.2"/>
  <path d="m14.376 10.096h3.716l0.2826 0.2826v3.1956h3.1956l0.2826 0.2826v6.7158l-0.2826 0.2826h-7.1942l-0.2826-0.2826v-10.194z" fill="#d8e9f4" stroke-linecap="round" stroke-linejoin="round" stroke-width="2.2"/>
 </g>
</svg>
